<svg width="26" height="10" viewBox="0 0 26 10" fill="none" xmlns="http://www.w3.org/2000/svg">
<path d="M16.2699 1.20725H9.40663V8.82553H16.2699V1.20725Z" fill="#FF5F00"/>
<path d="M9.84245 5.01639C9.84137 4.28269 10.1105 3.55846 10.6296 2.89852C11.1486 2.23858 11.9039 1.66023 12.8383 1.20725C11.6812 0.64545 10.2915 0.296075 8.82815 0.199058C7.36478 0.10204 5.88674 0.261291 4.56296 0.658616C3.23919 1.05594 2.1231 1.67531 1.34226 2.44591C0.561418 3.21652 0.147339 4.10728 0.147339 5.01639C0.147339 5.92549 0.561418 6.81625 1.34226 7.58686C2.1231 8.35747 3.23919 8.97683 4.56296 9.37416C5.88674 9.77148 7.36478 9.93073 8.82815 9.83371C10.2915 9.7367 11.6812 9.38732 12.8383 8.82552C11.9039 8.37254 11.1486 7.79419 10.6296 7.13425C10.1105 6.47431 9.84138 5.75008 9.84245 5.01639Z" fill="#EB001B"/>
<path d="M25.5289 5.01639C25.5289 5.92547 25.1149 6.81623 24.3341 7.58684C23.5533 8.35745 22.4372 8.97682 21.1135 9.37415C19.7897 9.77147 18.3117 9.93073 16.8484 9.83371C15.385 9.7367 13.9954 9.38732 12.8383 8.82552C13.7719 8.37209 14.5266 7.79364 15.0455 7.13381C15.5645 6.47397 15.8341 5.74996 15.8341 5.01639C15.8341 4.28281 15.5645 3.5588 15.0455 2.89897C14.5266 2.23913 13.7719 1.66069 12.8383 1.20725C13.9954 0.645449 15.385 0.296073 16.8484 0.199057C18.3117 0.10204 19.7897 0.261298 21.1135 0.658627C22.4372 1.05596 23.5533 1.67532 24.3341 2.44593C25.1149 3.21654 25.5289 4.1073 25.5289 5.01639Z" fill="#F79E1B"/>
<path d="M24.7805 8.01863V7.86266H24.8824V7.83089H24.6231V7.86266H24.7249V8.01863H24.7805ZM25.284 8.01863V7.83058H25.2045L25.1131 7.95993L25.0216 7.83058H24.9421V8.01863H24.9982V7.87678L25.0839 7.99908H25.1421L25.2279 7.87647V8.01863H25.284Z" fill="#F79E1B"/>
</svg>
